<svg data-v-0dd9719b="" version="1.0" xmlns="http://www.w3.org/2000/svg" xmlns:xlink="http://www.w3.org/1999/xlink" width="100%" height="100%" viewBox="0 0 340.000000 250.000000" preserveAspectRatio="xMidYMid meet" color-interpolation-filters="sRGB" style="margin: auto;"> <rect data-v-0dd9719b="" x="0" y="0" width="100%" height="100%" fill="#fff" fill-opacity="1" class="background"></rect> <rect data-v-0dd9719b="" x="0" y="0" width="100%" height="100%" fill="url(#watermark)" fill-opacity="1" class="watermarklayer"></rect> <g data-v-0dd9719b="" fill="#000000" class="icon-text-wrapper icon-svg-group iconsvg" transform="translate(61.099998474121094,97.53526878356934)"><g class="iconsvg-imagesvg" transform="translate(0,0)"><g><rect fill="#000000" fill-opacity="0" stroke-width="2" x="0" y="0" width="60" height="54.929461416630815" class="image-rect"></rect> <svg x="0" y="0" width="60" height="54.929461416630815" filtersec="colorsb852776183" class="image-svg-svg primary" style="overflow: visible;"><svg fill="#000000" xmlns="http://www.w3.org/2000/svg" xmlns:xlink="http://www.w3.org/1999/xlink" version="1.1" x="0px" y="0px" viewBox="0.9831842184066772 3.0461907386779785 48.016815185546875 43.959007263183594" enable-background="new 0 0 50 50" xml:space="preserve"><g><path d="M13.5,10.4c0,0-7.4,4.7-11,12.4C-0.1,28.3,0.8,34.5,4,39.2c1.2-6.9,8-16.5,18.8-19.5   C15.1,25.3,4,39.2,11.6,45.6c1.9,0.8,3.9,1.3,6.1,1.4c15.8,0.4,20.4-22.4,21.4-29.2C40.4,9.2,48.6,4,49,3.9   C48.4,3.8,30.6-0.3,13.5,10.4z"></path></g></svg></svg> <!----></g></g> <g transform="translate(67,3.5747299194335938)"><g data-gra="path-name" fill-rule="" class="tp-name iconsvg-namesvg"><g transform="scale(1)"><g><path d="M43.09-46.41L43.09 0 31.33 0 13.52-34.13 13.26-34.13Q13.46-30.75 13.59-27.66 13.71-24.57 13.85-21.71L13.85-21.71 13.85 0 5.2 0 5.2-46.41 16.9-46.41 34.65-12.8 34.84-12.8Q34.71-15.99 34.58-18.98 34.45-21.97 34.38-24.77L34.38-24.77 34.38-46.41 43.09-46.41ZM91.78-23.27L91.78-23.27Q91.78-15.99 89.64-10.63 87.49-5.27 83.04-2.31 78.59 0.65 71.76 0.65L71.76 0.65Q64.94 0.65 60.48-2.31 56.03-5.27 53.89-10.66 51.74-16.05 51.74-23.34L51.74-23.34Q51.74-34.45 56.68-40.79 61.62-47.13 71.83-47.13L71.83-47.13Q78.65-47.13 83.07-44.2 87.49-41.27 89.64-35.91 91.78-30.55 91.78-23.27ZM61.62-23.27L61.62-23.27Q61.62-15.73 64.06-11.6 66.5-7.48 71.76-7.48L71.76-7.48Q77.09-7.48 79.46-11.57 81.84-15.67 81.84-23.27L81.84-23.27Q81.84-30.88 79.46-35 77.09-39.13 71.83-39.13L71.83-39.13Q66.5-39.13 64.06-34.97 61.62-30.81 61.62-23.27ZM124.54-46.41L134.22-46.41 119.99 0 109.39 0 95.22-46.41 104.91-46.41 112.51-19.3Q112.77-18.33 113.23-16.41 113.69-14.5 114.11-12.42 114.53-10.34 114.72-8.97L114.72-8.97Q114.92-10.34 115.34-12.38 115.76-14.43 116.19-16.35 116.61-18.27 116.87-19.3L116.87-19.3 124.54-46.41ZM156-5.33L156 0 136.24 0 136.24-5.33 141.38-7.61 141.38-38.8 136.24-41.08 136.24-46.41 156-46.41 156-41.08 150.87-38.8 150.87-7.61 156-5.33Z" transform="translate(-5.199999809265137, 47.130001068115234)"></path></g> <!----> <!----> <!----> <!----> <!----> <!----> <!----></g></g> <!----></g></g><defs v-gra="od"></defs></svg>